<?xml version="1.0" standalone="no"?>
<!DOCTYPE svg PUBLIC "-//W3C//DTD SVG 20010904//EN"
 "http://www.w3.org/TR/2001/REC-SVG-20010904/DTD/svg10.dtd">
<svg version="1.0" xmlns="http://www.w3.org/2000/svg"
 width="498.000000pt" height="501.000000pt" viewBox="0 0 498.000000 501.000000"
 preserveAspectRatio="xMidYMid meet">

<g transform="translate(0.000000,501.000000) scale(0.100000,-0.100000)"
fill="#000000" stroke="none">
<path d="M2390 3474 c-275 -51 -470 -174 -605 -384 -51 -79 -77 -136 -107
-238 -31 -103 -32 -331 -2 -432 l19 -65 43 -3 c23 -2 42 -1 42 2 0 3 -10 41
-22 83 -29 102 -30 286 -3 383 73 263 270 466 530 546 47 15 92 19 210 19 132
0 158 -3 220 -24 101 -34 160 -66 242 -128 135 -102 231 -251 274 -423 32
-126 20 -331 -26 -442 -6 -16 -1 -18 39 -18 44 0 45 1 56 40 5 22 15 59 22 83
19 71 14 270 -10 363 -80 304 -300 528 -604 614 -71 20 -261 35 -318 24z"/>
<path d="M2300 2997 l-175 -102 -3 -257 -2 -257 22 -14 c27 -17 98 -29 98 -17
0 4 -16 17 -35 29 -21 12 -35 28 -35 40 0 17 9 14 80 -26 72 -40 171 -69 156
-45 -3 6 -51 35 -106 67 -55 31 -100 60 -100 65 0 8 277 170 291 170 12 0 299
-164 299 -171 0 -3 -47 -32 -105 -65 -58 -32 -105 -63 -105 -67 0 -20 86 6
158 47 60 35 78 42 80 30 5 -20 -12 -39 -48 -54 -17 -7 -30 -16 -30 -19 0 -9
90 2 108 12 9 6 12 72 12 271 l0 262 -177 102 c-97 56 -183 102 -192 101 -9 0
-95 -46 -191 -102z m170 -130 l0 -173 -107 -62 c-60 -34 -127 -73 -150 -88
l-43 -25 0 175 0 174 147 86 c81 47 149 86 150 86 2 0 3 -78 3 -173z m238 66
l112 -66 0 -174 0 -175 -32 19 -33 19 -3 121 -3 121 -69 42 c-39 22 -75 38
-80 35 -6 -3 -10 -53 -10 -111 0 -57 -2 -104 -5 -104 -4 0 -19 7 -34 15 -35
18 -37 31 -33 223 l3 143 37 -21 c20 -13 88 -52 150 -87z m-38 -138 l30 -16 0
-95 0 -96 -32 19 -33 19 -3 92 c-1 51 0 92 3 92 3 0 19 -7 35 -15z"/>
<path d="M1247 2063 c-4 -3 -7 -55 -7 -115 0 -100 1 -108 19 -108 14 0 21 8
23 28 3 26 6 27 70 33 85 7 108 25 108 84 0 69 -24 85 -124 85 -45 0 -86 -3
-89 -7z m161 -45 c17 -17 15 -44 -4 -62 -18 -19 -94 -22 -112 -4 -13 13 -16
60 -5 71 11 12 108 8 121 -5z"/>
<path d="M1580 1955 c0 -115 0 -116 23 -113 16 2 22 10 23 28 2 62 -1 60 74
60 l70 0 0 -45 c0 -38 3 -45 20 -45 19 0 20 7 20 115 0 107 -1 115 -19 115
-17 0 -20 -8 -23 -47 l-3 -48 -67 -3 c-38 -2 -69 1 -69 5 -1 4 -3 26 -4 48 -1
33 -6 41 -23 43 -22 3 -22 1 -22 -113z"/>
<path d="M1940 1955 l0 -116 102 3 c88 3 103 6 106 20 3 15 -8 18 -80 20 -75
3 -83 5 -83 23 0 18 8 20 63 23 53 3 62 6 62 22 0 16 -9 19 -62 22 -60 3 -63
4 -63 28 0 24 2 25 83 28 72 2 83 5 80 20 -3 14 -18 17 -106 20 l-102 3 0
-116z"/>
<path d="M2264 2057 c-2 -7 -3 -58 -2 -113 3 -91 5 -99 23 -99 18 0 20 8 23
73 2 39 7 72 12 72 5 0 35 -33 67 -72 44 -55 65 -73 84 -73 24 0 24 0 24 110
0 103 -1 110 -20 110 -18 0 -20 -8 -23 -72 -2 -40 -7 -73 -11 -73 -5 0 -36 34
-70 75 -61 73 -95 93 -107 62z"/>
<path d="M2630 1955 c0 -108 1 -115 20 -115 19 0 20 7 20 115 0 108 -1 115
-20 115 -19 0 -20 -7 -20 -115z"/>
<path d="M2800 1955 c0 -107 1 -115 19 -115 16 0 20 8 23 43 3 39 5 42 33 44
25 2 35 -4 60 -37 27 -36 68 -60 81 -48 2 3 -14 28 -36 55 -22 28 -40 54 -40
59 0 4 18 29 40 55 22 26 40 49 40 51 0 2 -10 4 -21 4 -13 0 -37 -19 -62 -49
-32 -38 -46 -47 -66 -45 -23 3 -26 8 -29 51 -3 39 -6 47 -23 47 -18 0 -19 -8
-19 -115z"/>
<path d="M3232 2057 c-11 -12 -102 -203 -102 -212 0 -16 40 -1 54 20 14 22 24
25 75 25 52 0 61 -3 75 -25 16 -24 46 -35 46 -16 0 5 -22 57 -50 115 -37 81
-54 106 -68 106 -11 0 -24 -6 -30 -13z m53 -84 c8 -19 15 -37 15 -39 0 -2 -18
-4 -40 -4 -44 0 -47 5 -25 56 17 41 29 37 50 -13z"/>
<path d="M3592 2057 c-10 -11 -102 -205 -102 -213 0 -2 8 -4 19 -4 10 0 26 11
35 25 14 22 24 25 71 25 46 0 59 -4 77 -25 23 -27 48 -33 48 -12 0 6 -22 58
-50 115 -37 77 -54 102 -68 102 -11 0 -24 -6 -30 -13z m51 -72 c24 -50 22 -55
-23 -55 -22 0 -40 5 -40 10 0 19 29 80 38 80 4 0 16 -16 25 -35z"/>
</g>
</svg>
